<svg width="400" height="400" viewBox="0 0 400 400" fill="none" xmlns="http://www.w3.org/2000/svg">
<path d="M210.609 234.047L294.407 105.713L166.073 189.511L210.609 234.047Z" fill="#977359"/>
<path fill-rule="evenodd" clip-rule="evenodd" d="M200 0C89.5431 0 0 89.5431 0 200C0 310.457 89.5431 400 200 400C310.457 400 400 310.457 400 200C400 89.5431 310.457 0 200 0ZM36.3636 200C36.3636 109.626 109.626 36.3636 200 36.3636C290.374 36.3636 363.636 109.626 363.636 200C363.636 290.374 290.374 363.636 200 363.636C109.626 363.636 36.3636 290.374 36.3636 200Z" fill="#977359"/>
</svg>
