<?xml version="1.0" encoding="UTF-8" standalone="no"?>
<!DOCTYPE svg PUBLIC "-//W3C//DTD SVG 1.1//EN" "http://www.w3.org/Graphics/SVG/1.1/DTD/svg11.dtd">
<svg width="100%" height="100%" viewBox="0 0 1000 1000" version="1.1" xmlns="http://www.w3.org/2000/svg" xmlns:xlink="http://www.w3.org/1999/xlink" xml:space="preserve" xmlns:serif="http://www.serif.com/" style="fill-rule:evenodd;clip-rule:evenodd;stroke-linejoin:round;stroke-miterlimit:2;">
    <g transform="matrix(4.25869,0,0,4.25869,-1649.22,-2962.87)">
        <g id="Saucer" transform="matrix(1,0,0,1,0,306.497)">
            <g transform="matrix(0.907357,0,0,0.793937,251.127,300.419)">
                <circle cx="274.283" cy="266.822" r="110.21" style="fill:white;"/>
            </g>
            <g transform="matrix(0.907357,0,0,0.793937,251.127,300.419)">
                <path d="M274.283,155.352C335.756,155.352 385.596,205.349 385.596,266.822C385.596,328.294 335.756,378.291 274.283,378.291C212.811,378.291 162.971,328.294 162.971,266.822C162.971,205.349 212.811,155.352 274.283,155.352ZM274.283,157.871C214.103,157.871 165.175,206.641 165.175,266.822C165.175,327.002 214.103,375.772 274.283,375.772C334.464,375.772 383.391,327.002 383.391,266.822C383.391,206.641 334.464,157.871 274.283,157.871Z"/>
            </g>
            <g transform="matrix(0.861989,0,0,0.75424,263.571,311.011)">
                <circle cx="274.283" cy="266.822" r="110.21" style="fill:white;"/>
            </g>
            <g transform="matrix(0.861989,0,0,0.75424,263.571,311.011)">
                <path d="M274.283,155.285C335.79,155.285 385.654,205.315 385.654,266.822C385.654,328.328 335.79,378.358 274.283,378.358C212.777,378.358 162.913,328.328 162.913,266.822C162.913,205.315 212.777,155.285 274.283,155.285ZM274.283,157.937C214.137,157.937 165.233,206.675 165.233,266.822C165.233,326.968 214.137,375.706 274.283,375.706C334.43,375.706 383.333,326.968 383.333,266.822C383.333,206.675 334.43,157.937 274.283,157.937Z"/>
            </g>
            <g transform="matrix(0.40831,0,0,0.357272,388.007,416.931)">
                <circle cx="274.283" cy="266.822" r="110.21" style="fill:white;"/>
            </g>
            <g transform="matrix(0.40831,0,0,0.357272,388.007,416.931)">
                <path d="M274.283,153.812C336.545,153.812 386.943,204.559 386.943,266.822C386.943,329.084 336.545,379.831 274.283,379.831C212.021,379.831 161.624,329.084 161.624,266.822C161.624,204.559 212.021,153.812 274.283,153.812ZM274.283,159.41C214.892,159.41 166.522,207.43 166.522,266.822C166.522,326.213 214.892,374.233 274.283,374.233C333.675,374.233 382.044,326.213 382.044,266.822C382.044,207.43 333.675,159.41 274.283,159.41Z"/>
            </g>
        </g>
        <g id="Handle" transform="matrix(1,0,0,1,-3.95748,301.428)">
            <path d="M579.428,472.924C595.421,468.638 610.435,472.733 612.935,482.063C615.435,491.392 604.48,502.446 588.487,506.731C572.494,511.017 557.48,506.921 554.98,497.592C552.48,488.263 563.435,477.209 579.428,472.924ZM582.016,482.583C571.887,485.297 564.534,490.747 565.605,494.745C566.676,498.743 575.77,499.786 585.899,497.072C596.028,494.358 603.381,488.908 602.31,484.91C601.239,480.912 592.145,479.869 582.016,482.583Z" style="fill:white;"/>
        </g>
        <g transform="matrix(1,0,0,1,-3.95748,301.428)">
            <path d="M579.169,471.958C589.016,469.319 598.499,469.809 605.066,472.664C609.644,474.656 612.828,477.799 613.901,481.804C614.974,485.809 613.789,490.123 610.819,494.137C606.561,499.893 598.592,505.059 588.746,507.697C578.899,510.335 569.416,509.846 562.849,506.99C558.271,504.999 555.087,501.856 554.014,497.851C552.941,493.846 554.126,489.532 557.096,485.518C561.354,479.762 569.323,474.596 579.169,471.958ZM579.687,473.89C570.341,476.394 562.746,481.244 558.703,486.707C556.139,490.174 555.019,493.875 555.946,497.333C556.872,500.792 559.693,503.437 563.647,505.156C569.879,507.867 578.882,508.269 588.228,505.765C597.574,503.261 605.169,498.411 609.211,492.947C611.776,489.481 612.896,485.78 611.969,482.322C611.043,478.863 608.222,476.218 604.268,474.498C598.036,471.788 589.033,471.385 579.687,473.89ZM581.758,481.617C588.025,479.938 593.909,479.677 597.851,480.609C600.85,481.317 602.772,482.769 603.276,484.651C603.78,486.533 602.841,488.751 600.599,490.864C597.651,493.642 592.425,496.358 586.157,498.038C579.89,499.717 574.006,499.978 570.064,499.046C567.065,498.338 565.143,496.886 564.639,495.004C564.135,493.122 565.073,490.903 567.316,488.791C570.264,486.013 575.49,483.296 581.758,481.617ZM582.275,483.549C576.387,485.127 571.457,487.637 568.687,490.246C567.117,491.726 566.218,493.168 566.571,494.486C566.924,495.804 568.424,496.603 570.524,497.1C574.227,497.975 579.752,497.684 585.64,496.106C591.527,494.528 596.458,492.018 599.227,489.409C600.798,487.929 601.697,486.487 601.344,485.169C600.991,483.851 599.491,483.051 597.391,482.555C593.688,481.68 588.163,481.971 582.275,483.549Z"/>
        </g>
        <g id="Cup" transform="matrix(1,0,0,1,-312.695,580.005)">
            <g transform="matrix(1.28956,0,0,1.28956,168.054,-492.62)">
                <circle cx="499.893" cy="552.609" r="62.037" style="fill:white;"/>
            </g>
            <g transform="matrix(1.28956,0,0,1.28956,168.054,-492.62)">
                <path d="M499.893,489.796C534.561,489.796 562.706,517.942 562.706,552.609C562.706,587.276 534.561,615.421 499.893,615.421C465.226,615.421 437.081,587.276 437.081,552.609C437.081,517.942 465.226,489.796 499.893,489.796ZM499.893,491.347C466.082,491.347 438.632,518.798 438.632,552.609C438.632,586.42 466.082,613.87 499.893,613.87C533.705,613.87 561.155,586.42 561.155,552.609C561.155,518.798 533.705,491.347 499.893,491.347Z"/>
            </g>
            <g transform="matrix(1.14194,0,0,1.01959,241.727,-276.707)">
                <circle cx="500" cy="478.583" r="61.299" style="fill:rgb(129,98,75);"/>
            </g>
            <g transform="matrix(1.14194,0,0,1.01959,241.727,-276.707)">
                <path d="M500,416.303C534.341,416.303 562.175,444.242 562.175,478.583C562.175,512.924 534.341,540.863 500,540.863C465.659,540.863 437.825,512.924 437.825,478.583C437.825,444.242 465.659,416.303 500,416.303ZM500,418.265C466.677,418.265 439.576,445.26 439.576,478.583C439.576,511.906 466.677,538.902 500,538.902C533.323,538.902 560.424,511.906 560.424,478.583C560.424,445.26 533.323,418.265 500,418.265Z"/>
            </g>
            <g transform="matrix(1.14194,0,0,1.01959,241.727,-276.707)">
                <circle cx="500" cy="478.583" r="61.299" style="fill:rgb(129,98,75);"/>
            </g>
            <g transform="matrix(1.14194,0,0,1.01959,241.727,-276.707)">
                <path d="M500,416.303C534.341,416.303 562.175,444.242 562.175,478.583C562.175,512.924 534.341,540.863 500,540.863C465.659,540.863 437.825,512.924 437.825,478.583C437.825,444.242 465.659,416.303 500,416.303ZM500,418.265C466.677,418.265 439.576,445.26 439.576,478.583C439.576,511.906 466.677,538.902 500,538.902C533.323,538.902 560.424,511.906 560.424,478.583C560.424,445.26 533.323,418.265 500,418.265Z"/>
            </g>
            <g transform="matrix(0.707107,0.707107,-1.07244,1.07244,1305.58,-988.746)">
                <path d="M495,789.269L505,789.269L500,809.478L495,789.269Z" style="fill:white;"/>
            </g>
            <g transform="matrix(0.707107,0.707107,-1.07244,1.07244,1305.58,-988.746)">
                <path d="M495,788.939L505,788.939C505.147,788.939 505.286,788.982 505.381,789.055C505.476,789.129 505.517,789.227 505.493,789.322L500.493,809.531C500.454,809.69 500.245,809.807 500,809.807C499.755,809.807 499.546,809.69 499.507,809.531L494.507,789.322C494.483,789.227 494.524,789.129 494.619,789.055C494.714,788.982 494.853,788.939 495,788.939ZM495.588,789.599L500,807.43C500,807.43 504.412,789.599 504.412,789.599L495.588,789.599Z"/>
            </g>
            <g transform="matrix(0.707107,0.707107,-1.07244,1.07244,1305.58,-988.746)">
                <path d="M500,769.06L505,789.269L495,789.269L500,769.06Z" style="fill:rgb(255,75,62);"/>
            </g>
            <g transform="matrix(0.707107,0.707107,-1.07244,1.07244,1305.58,-988.746)">
                <path d="M500.493,769.007L505.493,789.216C505.517,789.311 505.476,789.409 505.381,789.482C505.286,789.556 505.147,789.599 505,789.599L495,789.599C494.853,789.599 494.714,789.556 494.619,789.482C494.524,789.409 494.483,789.311 494.507,789.216L499.507,769.007C499.546,768.847 499.755,768.73 500,768.73C500.245,768.73 500.454,768.847 500.493,769.007ZM500,771.108C500,771.108 495.588,788.939 495.588,788.939L504.412,788.939L500,771.108Z"/>
            </g>
            <g transform="matrix(0.63262,0,0,0.63262,496.385,-289.314)">
                <circle cx="500" cy="791.255" r="7.113" style="fill:white;"/>
            </g>
            <g transform="matrix(0.63262,0,0,0.63262,496.385,-289.314)">
                <path d="M500,783.352C504.362,783.352 507.904,786.893 507.904,791.255C507.904,795.617 504.362,799.159 500,799.159C495.638,799.159 492.096,795.617 492.096,791.255C492.096,786.893 495.638,783.352 500,783.352ZM500,784.932C496.51,784.932 493.677,787.766 493.677,791.255C493.677,794.745 496.51,797.578 500,797.578C503.49,797.578 506.323,794.745 506.323,791.255C506.323,787.766 503.49,784.932 500,784.932Z"/>
            </g>
            <g transform="matrix(1,0,0,1,385.229,-558.382)">
                <path d="M478.154,775.44L487.466,775.44L487.466,772.928L480.986,772.928L480.986,770.864L486.394,770.864L486.394,768.384L480.986,768.384L480.986,766.336L487.322,766.336L487.322,763.824L478.154,763.824L478.154,775.44Z" style="fill:white;fill-rule:nonzero;"/>
            </g>
            <g transform="matrix(1,0,0,1,275.517,-558.382)">
                <path d="M477.178,763.824L480.362,775.44L484.442,775.44L486.218,767.264L487.834,775.44L491.866,775.44L495.37,763.824L492.154,763.824L489.994,773.072L488.298,763.824L484.33,763.824L482.346,773.296L480.506,763.824L477.178,763.824Z" style="fill:white;fill-rule:nonzero;"/>
            </g>
            <g transform="matrix(1,0,0,1,328.901,-605.074)">
                <path d="M486.01,775.44L489.434,775.44L489.434,763.824L486.698,763.824L486.858,771.952L481.61,763.824L478.218,763.824L478.154,775.44L480.89,775.44L480.778,767.456L486.01,775.44Z" style="fill:white;fill-rule:nonzero;"/>
            </g>
            <g transform="matrix(1,0,0,1,329.645,-511.946)">
                <path d="M483.146,775.696C486.586,775.696 488.506,774.56 488.506,772.08C488.506,766.944 480.842,769.232 480.842,766.992C480.842,766.416 481.386,765.952 482.986,765.952C485.066,765.952 485.562,766.704 485.562,767.376L488.346,767.376C488.346,765.056 486.874,763.568 483.002,763.568C479.258,763.568 477.818,764.944 477.802,767.232C477.754,772.304 485.498,770.032 485.498,772.256C485.498,773.024 484.426,773.328 483.162,773.328C481.386,773.328 480.378,772.704 480.378,771.776L477.594,771.776C477.594,774.368 479.53,775.696 483.146,775.696Z" style="fill:white;fill-rule:nonzero;"/>
            </g>
        </g>
    </g>
</svg>
